<?xml version="1.0" encoding="UTF-8"?>
<svg width="12px" height="13px" viewBox="0 0 12 13" version="1.1" xmlns="http://www.w3.org/2000/svg" xmlns:xlink="http://www.w3.org/1999/xlink">
    <!-- Generator: sketchtool 45.2 (43514) - http://www.bohemiancoding.com/sketch -->
    <title>279CAF14-1750-4BA4-BF84-780B325ADCB0</title>
    <desc>Created with sketchtool.</desc>
    <defs></defs>
    <g id="IA---Reporter" stroke="none" stroke-width="1" fill="none" fill-rule="evenodd">
        <g id="List-P.Release" transform="translate(-258.000000, -431.000000)" fill="#9B9B9B">
            <g id="Group-7" transform="translate(98.000000, 287.000000)">
                <g id="Group-6" transform="translate(160.000000, 142.000000)">
                    <path d="M6,2.75 C6.82812914,2.75 7.60741822,2.90624844 8.33789062,3.21875 C9.06836303,3.53125156 9.70507541,3.95898166 10.2480469,4.50195312 C10.7910183,5.04492459 11.2187484,5.68163697 11.53125,6.41210938 C11.8437516,7.14258178 12,7.92187086 12,8.75 C12,9.57812914 11.8437516,10.3574182 11.53125,11.0878906 C11.2187484,11.818363 10.7910183,12.4550754 10.2480469,12.9980469 C9.70507541,13.5410183 9.06836303,13.9687484 8.33789062,14.28125 C7.60741822,14.5937516 6.82812914,14.75 6,14.75 C5.17187086,14.75 4.39258178,14.5937516 3.66210938,14.28125 C2.93163697,13.9687484 2.29492459,13.5410183 1.75195312,12.9980469 C1.20898166,12.4550754 0.781251563,11.818363 0.46875,11.0878906 C0.156248438,10.3574182 0,9.57812914 0,8.75 C0,7.92187086 0.156248438,7.14258178 0.46875,6.41210938 C0.781251563,5.68163697 1.20898166,5.04492459 1.75195312,4.50195312 C2.29492459,3.95898166 2.93163697,3.53125156 3.66210938,3.21875 C4.39258178,2.90624844 5.17187086,2.75 6,2.75 Z M6,14.0117188 C6.72656613,14.0117188 7.40819994,13.8730483 8.04492188,13.5957031 C8.68164381,13.318358 9.23632576,12.9414086 9.70898438,12.4648438 C10.181643,11.9882789 10.5566392,11.4316438 10.8339844,10.7949219 C11.1113295,10.1581999 11.25,9.47656613 11.25,8.75 C11.25,8.02343387 11.1113295,7.34180006 10.8339844,6.70507812 C10.5566392,6.06835619 10.181643,5.51367424 9.70898438,5.04101562 C9.23632576,4.56835701 8.68164381,4.19336076 8.04492188,3.91601562 C7.40819994,3.63867049 6.72656613,3.5 6,3.5 C5.27343387,3.5 4.59180006,3.63867049 3.95507812,3.91601562 C3.31835619,4.19336076 2.76367424,4.56835701 2.29101562,5.04101562 C1.81835701,5.51367424 1.44336076,6.06835619 1.16601562,6.70507812 C0.888670488,7.34180006 0.75,8.02343387 0.75,8.75 C0.75,9.47656613 0.888670488,10.1581999 1.16601562,10.7949219 C1.44336076,11.4316438 1.81835701,11.9882789 2.29101562,12.4648438 C2.76367424,12.9414086 3.31835619,13.318358 3.95507812,13.5957031 C4.59180006,13.8730483 5.27343387,14.0117188 6,14.0117188 Z M6.375,8.59765625 L8.14453125,10.3671875 C8.2148441,10.4375004 8.25,10.5253901 8.25,10.6308594 C8.25,10.7363287 8.2148441,10.8242184 8.14453125,10.8945312 C8.0742184,10.9726566 7.98632865,11.0117188 7.88085938,11.0117188 C7.7753901,11.0117188 7.68750035,10.9726566 7.6171875,10.8945312 L5.75390625,9.04296875 C5.75390625,9.03515621 5.75195314,9.02929689 5.74804688,9.02539062 L5.7421875,9.01953125 C5.7031248,8.98828109 5.67382822,8.94921898 5.65429688,8.90234375 C5.63476553,8.85546852 5.625,8.80468777 5.625,8.75 L5.625,5 C5.625,4.89843699 5.662109,4.81054725 5.73632812,4.73632812 C5.81054725,4.662109 5.89843699,4.625 6,4.625 C6.10156301,4.625 6.18945275,4.662109 6.26367188,4.73632812 C6.337891,4.81054725 6.375,4.89843699 6.375,5 L6.375,8.59765625 Z" id="î‚"></path>
                </g>
            </g>
        </g>
    </g>
</svg>