<?xml version="1.0" encoding="UTF-8"?>
<svg width="14px" height="17px" viewBox="0 0 14 17" version="1.1" xmlns="http://www.w3.org/2000/svg" xmlns:xlink="http://www.w3.org/1999/xlink">
    <!-- Generator: sketchtool 46 (44423) - http://www.bohemiancoding.com/sketch -->
    <title>624C968A-044E-480C-B946-096A0EE0B719</title>
    <desc>Created with sketchtool.</desc>
    <defs></defs>
    <g id="IA---User" stroke="none" stroke-width="1" fill="none" fill-rule="evenodd">
        <g id="[User]-Press-Releases:-Detail---Info" transform="translate(-1085.000000, -192.000000)" fill="#505458">
            <g id="dropdown-copy" transform="translate(1068.000000, 135.000000)">
                <path d="M29.985574,60.4795017 C30.1206666,60.4795017 30.2375719,60.5288839 30.3362935,60.6276499 C30.435015,60.7264158 30.484375,60.8433737 30.484375,60.978527 C30.484375,61.1136804 30.435015,61.2306383 30.3362935,61.3294042 C30.2375719,61.4281702 30.1206666,61.4775524 29.985574,61.4775524 L29.2997227,61.4775524 L28.130658,73.0175134 C28.1098745,73.2878201 27.998165,73.5165378 27.7955261,73.7036732 C27.5928872,73.8908087 27.3564787,73.984375 27.0862935,73.984375 L20.8824565,73.984375 C20.6122713,73.984375 20.3758628,73.8908087 20.1732239,73.7036732 C19.970585,73.5165378 19.8536797,73.2878201 19.8225045,73.0175134 L18.6690273,61.4775524 L17.983176,61.4775524 C17.8480834,61.4775524 17.7311781,61.4281702 17.6324565,61.3294042 C17.533735,61.2306383 17.484375,61.1136804 17.484375,60.978527 C17.484375,60.8433737 17.533735,60.7264158 17.6324565,60.6276499 C17.7311781,60.5288839 17.8480834,60.4795017 17.983176,60.4795017 L21.4903702,60.4795017 L21.4903702,59.1227766 C21.4903702,58.8004877 21.6046776,58.5301851 21.8332959,58.3118604 C22.0619141,58.0935357 22.3320953,57.984375 22.6438474,57.984375 L25.3249026,57.984375 C25.6366547,57.984375 25.9068359,58.0935357 26.1354541,58.3118604 C26.3640724,58.5301851 26.4783798,58.8004877 26.4783798,59.1227766 L26.4783798,60.4795017 L29.985574,60.4795017 Z M22.4879721,59.1227766 L22.4879721,60.4795017 L25.4807779,60.4795017 L25.4807779,59.1227766 C25.4807779,59.0811909 25.4651905,59.044804 25.4340153,59.0136148 C25.4028401,58.9824255 25.3664695,58.9668311 25.3249026,58.9668311 L22.6438474,58.9668311 C22.6022805,58.9668311 22.5659099,58.9824255 22.5347347,59.0136148 C22.5035595,59.044804 22.4879721,59.0811909 22.4879721,59.1227766 Z M27.1486436,72.9239462 L28.2865333,61.4775524 L19.6822167,61.4775524 L20.8201064,72.9239462 C20.8201064,72.9343426 20.8279001,72.9473379 20.8434877,72.9629325 C20.8590753,72.9785271 20.8720648,72.9863243 20.8824565,72.9863243 L27.0862935,72.9863243 C27.0966852,72.9863243 27.1096747,72.9811262 27.1252623,72.9707298 C27.1408499,72.9603334 27.1486436,72.944739 27.1486436,72.9239462 Z" id="trash---simple-line-icons"></path>
            </g>
        </g>
    </g>
</svg>