<?xml version="1.0" encoding="UTF-8"?>
<svg width="16px" height="16px" viewBox="0 0 16 16" version="1.1" xmlns="http://www.w3.org/2000/svg" xmlns:xlink="http://www.w3.org/1999/xlink">
    <!-- Generator: sketchtool 46 (44423) - http://www.bohemiancoding.com/sketch -->
    <title>3E45EB00-DCA1-4CA5-A0DF-01E8561FF056</title>
    <desc>Created with sketchtool.</desc>
    <defs></defs>
    <g id="IA---User" stroke="none" stroke-width="1" fill="none" fill-rule="evenodd">
        <g id="[User]-Press-Releases:-Detail---Info" transform="translate(-1084.000000, -153.000000)" fill="#FFFFFF">
            <g id="dropdown-copy" transform="translate(1068.000000, 135.000000)">
                <path d="M31.0321912,18.7796482 C31.3440646,19.07073 31.5779661,19.374802 31.7339028,19.6918733 C31.8898395,20.0089446 31.9730045,20.32861 31.9834003,20.6508792 C31.9937961,20.99394 31.9210267,21.3291988 31.76509,21.6566659 C31.6091533,21.984133 31.3804496,22.3037984 31.078972,22.6156718 C30.9334311,22.7716085 30.3512761,23.3537634 29.3324897,24.3621541 C28.3137032,25.3705447 27.214366,26.4594864 26.034445,27.6290116 C24.854524,28.7985368 23.7707802,29.871885 22.7831811,30.8490883 C21.795582,31.8262916 21.2550095,32.3616663 21.1614475,32.4552283 C21.1302602,32.4864156 21.0964744,32.5124047 21.0600892,32.5331963 C21.0237039,32.5539878 20.9847203,32.5695813 20.9431372,32.579977 C20.7975963,32.6215602 20.4909254,32.7177197 20.0231153,32.8684585 C19.5553052,33.0191973 19.0745076,33.1725327 18.5807081,33.3284694 C18.0869085,33.4844061 17.6424956,33.627346 17.2474559,33.7572932 C16.8524163,33.8872405 16.6497016,33.9522131 16.6393059,33.9522131 C16.6185143,33.9626089 16.5951241,33.9704056 16.5691347,33.9756035 C16.5431452,33.9808014 16.5145573,33.9834003 16.4833699,33.9834003 C16.4209953,33.9834003 16.3586215,33.9704058 16.2962468,33.9444163 C16.2338722,33.9184269 16.181894,33.8794433 16.1403109,33.8274644 C16.0675405,33.7650897 16.0207602,33.6871225 15.9999686,33.5935605 C15.979177,33.4999985 15.979177,33.4064379 15.9999686,33.3128759 C16.0103644,33.3024801 16.0727381,33.1075621 16.1870917,32.7281162 C16.3014453,32.3486702 16.4339895,31.9094551 16.5847283,31.4104576 C16.7354671,30.9114602 16.8810058,30.4254648 17.0213489,29.9524568 C17.1616919,29.4794488 17.2578514,29.1389921 17.3098303,28.9310765 C17.3306219,28.8894934 17.3514131,28.8505098 17.3722047,28.8141246 C17.3929962,28.7777394 17.4189853,28.7439536 17.4501726,28.7127662 L22.2841861,23.8787527 C23.5004924,22.6624465 24.6258187,21.5345213 25.6601988,20.4949433 C26.6945789,19.4553653 27.2481459,18.9043972 27.3209163,18.8420226 C27.4248741,18.7380648 27.64838,18.5691359 27.9914408,18.3352308 C28.3345015,18.1013258 28.7555243,17.984375 29.2545217,17.984375 C29.5767909,17.984375 29.8860607,18.0519466 30.1823404,18.1870917 C30.4786202,18.3222368 30.7619009,18.5197537 31.0321912,18.7796482 Z M27.1649804,20.4325689 C26.6763787,20.9107748 26.0526413,21.5293144 25.2937494,22.2882064 C24.5348574,23.0470983 23.7525867,23.8319679 22.9469138,24.6428387 C22.1412408,25.4537096 21.3693658,26.2281836 20.6312654,26.9662839 L18.8691895,28.7283598 C19.0771051,28.8115261 19.3084077,28.9310757 19.5631043,29.0870124 C19.817801,29.2429491 20.0750926,29.4508616 20.3349871,29.7107561 C20.5429027,29.9290675 20.7170294,30.1499745 20.8573725,30.3734838 C20.9977155,30.596993 21.1094685,30.8023066 21.1926347,30.9894307 C21.6292575,30.5528079 22.2140113,29.9732519 22.9469138,29.2507452 C23.6798163,28.5282385 24.4464935,27.7693579 25.2469686,26.9740807 C26.0474437,26.1788036 26.8245165,25.4069285 27.5782106,24.6584323 C28.3319046,23.9099362 28.9530432,23.2965944 29.4416448,22.8183885 C29.431249,22.7352223 29.3714742,22.5403043 29.2623185,22.2336288 C29.1531628,21.9269533 28.9426514,21.6176835 28.630778,21.3058101 C28.3189046,21.0043325 28.0278272,20.7912222 27.7575369,20.6664728 C27.4872466,20.5417235 27.2897298,20.4637563 27.1649804,20.4325689 Z M18.1830715,29.5704138 C18.0687179,29.9550577 17.9101846,30.4644432 17.7074669,31.0985858 C17.5047492,31.7327284 17.3306225,32.2836964 17.1850816,32.7515065 C17.6736832,32.5955698 18.2402447,32.4084486 18.8847831,32.1901372 C19.5293215,31.9718259 20.0231136,31.8054959 20.3661743,31.6911423 C20.3141954,31.5352056 20.2310304,31.3428866 20.1166769,31.1141794 C20.0023233,30.8854722 19.8359933,30.6619663 19.6176819,30.4436549 C19.3266001,30.1525731 19.051116,29.9420617 18.7912215,29.8121145 C18.531327,29.6821672 18.3286124,29.6016011 18.1830715,29.5704138 Z M30.3460732,21.8983666 C30.5539888,21.690451 30.7099231,21.4825385 30.8138809,21.2746229 C30.9178387,21.0667073 30.9698168,20.8691904 30.9698168,20.6820664 C30.9698168,20.4949424 30.9152398,20.3026233 30.8060841,20.1051035 C30.6969284,19.9075837 30.5383952,19.7100668 30.3304796,19.512547 C30.1641471,19.3462145 29.9900204,19.221467 29.8080942,19.1383008 C29.6261681,19.0551346 29.4416458,19.0135521 29.2545217,19.0135521 C28.9322525,19.0135521 28.6541696,19.0967171 28.4202646,19.2630495 C28.1863595,19.429382 28.0590131,19.5281404 28.0382216,19.5593278 L27.9602536,19.6372957 C28.1577734,19.720462 28.3760815,19.8374128 28.6151845,19.9881516 C28.8542874,20.1388904 29.0985846,20.3390061 29.3480833,20.5885048 C29.5871862,20.8276078 29.7795053,21.071905 29.9250462,21.3214037 C30.0705871,21.5709024 30.1797411,21.7996061 30.2525116,22.0075217 C30.2733032,21.9867302 30.2914955,21.9659389 30.3070892,21.9451473 C30.3226828,21.9243558 30.3356774,21.9087624 30.3460732,21.8983666 Z" id="pencil---simple-line-icons"></path>
            </g>
        </g>
    </g>
</svg>