<?xml version="1.0" encoding="UTF-8"?>
<svg width="17px" height="16px" viewBox="0 0 17 16" version="1.1" xmlns="http://www.w3.org/2000/svg" xmlns:xlink="http://www.w3.org/1999/xlink">
    <!-- Generator: sketchtool 45.2 (43514) - http://www.bohemiancoding.com/sketch -->
    <title>2AEBBAC1-20F6-46AD-A4EF-A69ACF1EFEAF</title>
    <desc>Created with sketchtool.</desc>
    <defs></defs>
    <g id="IA---Reporter" stroke="none" stroke-width="1" fill="none" fill-rule="evenodd">
        <g id="List-P.Release" transform="translate(-371.000000, -233.000000)" fill="#9B9B9B">
            <g id="Group-5" transform="translate(98.000000, 225.000000)">
                <g id="Search">
                    <path d="M289.859375,23.140625 C289.953125,23.2343755 290,23.3515618 290,23.4921875 C290,23.6328132 289.953125,23.7499995 289.859375,23.84375 C289.755208,23.9479172 289.635417,24 289.5,24 C289.364583,24 289.244792,23.9479172 289.140625,23.84375 L284.296875,18.96875 C283.744789,19.4479191 283.119795,19.8229153 282.421875,20.09375 C281.723955,20.3645847 280.984379,20.5 280.203125,20.5 C279.338537,20.5 278.526045,20.3359391 277.765625,20.0078125 C277.005205,19.6796859 276.341149,19.2343778 275.773438,18.671875 C275.205726,18.1093722 274.760418,17.4479205 274.4375,16.6875 C274.114582,15.9270795 273.953125,15.1145877 273.953125,14.25 C273.953125,13.3854123 274.114582,12.5729205 274.4375,11.8125 C274.760418,11.0520795 275.205726,10.3906278 275.773438,9.828125 C276.341149,9.26562219 277.005205,8.82031414 277.765625,8.4921875 C278.526045,8.16406086 279.338537,8 280.203125,8 C281.057296,8 281.86458,8.16406086 282.625,8.4921875 C283.38542,8.82031414 284.049476,9.26562219 284.617188,9.828125 C285.184899,10.3906278 285.632811,11.0520795 285.960938,11.8125 C286.289064,12.5729205 286.453125,13.3854123 286.453125,14.25 C286.453125,15.0104205 286.322918,15.7317674 286.0625,16.4140625 C285.802082,17.0963576 285.447919,17.7083306 285,18.25 L289.859375,23.140625 Z M280.203125,19.515625 C280.921879,19.515625 281.601559,19.3776055 282.242188,19.1015625 C282.882816,18.8255195 283.440102,18.4479191 283.914062,17.96875 C284.388023,17.4895809 284.763019,16.9322948 285.039062,16.296875 C285.315106,15.6614552 285.453125,14.9791703 285.453125,14.25 C285.453125,13.5208297 285.315106,12.8385448 285.039062,12.203125 C284.763019,11.5677052 284.388023,11.0104191 283.914062,10.53125 C283.440102,10.0520809 282.882816,9.67448055 282.242188,9.3984375 C281.601559,9.12239445 280.921879,8.984375 280.203125,8.984375 C279.473955,8.984375 278.789066,9.12239445 278.148438,9.3984375 C277.507809,9.67448055 276.950523,10.0520809 276.476562,10.53125 C276.002602,11.0104191 275.627606,11.5677052 275.351562,12.203125 C275.075519,12.8385448 274.9375,13.5208297 274.9375,14.25 C274.9375,14.9791703 275.075519,15.6614552 275.351562,16.296875 C275.627606,16.9322948 276.002602,17.4895809 276.476562,17.96875 C276.950523,18.4479191 277.507809,18.8255195 278.148438,19.1015625 C278.789066,19.3776055 279.473955,19.515625 280.203125,19.515625 Z" id="Magnifier---simple-line-icons"></path>
                </g>
            </g>
        </g>
    </g>
</svg>