<?xml version="1.0" encoding="UTF-8"?>
<svg width="12px" height="13px" viewBox="0 0 12 13" version="1.1" xmlns="http://www.w3.org/2000/svg" xmlns:xlink="http://www.w3.org/1999/xlink">
    <!-- Generator: sketchtool 45.2 (43514) - http://www.bohemiancoding.com/sketch -->
    <title>E3BFCCD9-15C2-409D-8953-FF93EE6F443D</title>
    <desc>Created with sketchtool.</desc>
    <defs></defs>
    <g id="IA---Reporter" stroke="none" stroke-width="1" fill="none" fill-rule="evenodd">
        <g id="List-P.Release" transform="translate(-393.000000, -431.000000)" fill="#9B9B9B">
            <g id="Group-7" transform="translate(98.000000, 287.000000)">
                <g id="Group-6" transform="translate(160.000000, 142.000000)">
                    <path d="M147,7.625 C147,7.8046884 146.990234,7.98046789 146.970703,8.15234375 C146.951172,8.32421961 146.878907,8.47265562 146.753906,8.59765625 L140.824219,14.5273438 C140.746093,14.5976566 140.66211,14.6523436 140.572266,14.6914062 C140.482421,14.7304689 140.386719,14.75 140.285156,14.75 C140.183593,14.75 140.087891,14.7304689 139.998047,14.6914062 C139.908203,14.6523436 139.828125,14.5976566 139.757812,14.5273438 L135.222656,9.9921875 C135.152343,9.92187465 135.097656,9.84179732 135.058594,9.75195312 C135.019531,9.66210893 135,9.56640676 135,9.46484375 C135,9.36328074 135.019531,9.26757857 135.058594,9.17773438 C135.097656,9.08789018 135.152343,9.00390664 135.222656,8.92578125 L141.152344,2.99609375 C141.277344,2.87109313 141.423827,2.79882822 141.591797,2.77929688 C141.759766,2.75976553 141.910156,2.75 142.042969,2.75 L146.085938,2.75 C146.335939,2.75 146.55078,2.83984285 146.730469,3.01953125 C146.910157,3.19921965 147,3.41406125 147,3.6640625 L147,7.625 Z M146.214844,8.0703125 C146.230469,8.03906234 146.240234,7.97656297 146.244141,7.8828125 C146.248047,7.78906203 146.25,7.7070316 146.25,7.63671875 L146.25,3.6640625 C146.25,3.61718727 146.234375,3.57812516 146.203125,3.546875 C146.171875,3.51562484 146.132813,3.5 146.085938,3.5 L142.042969,3.5 C141.996094,3.5 141.929688,3.50195311 141.84375,3.50585938 C141.757812,3.50976564 141.703125,3.51953117 141.679688,3.53515625 L135.75,9.46484375 L140.285156,14 L146.214844,8.0703125 Z M144,4.25 C144.414065,4.25 144.767577,4.39648291 145.060547,4.68945312 C145.353517,4.98242334 145.5,5.33593543 145.5,5.75 C145.5,6.16406457 145.353517,6.51757666 145.060547,6.81054688 C144.767577,7.10351709 144.414065,7.25 144,7.25 C143.585935,7.25 143.232423,7.10351709 142.939453,6.81054688 C142.646483,6.51757666 142.5,6.16406457 142.5,5.75 C142.5,5.33593543 142.646483,4.98242334 142.939453,4.68945312 C143.232423,4.39648291 143.585935,4.25 144,4.25 Z M144,6.5 C144.210939,6.5 144.388671,6.4277351 144.533203,6.28320312 C144.677735,6.13867115 144.75,5.96093855 144.75,5.75 C144.75,5.53906145 144.677735,5.36132885 144.533203,5.21679688 C144.388671,5.0722649 144.210939,5 144,5 C143.796874,5 143.621094,5.0722649 143.472656,5.21679688 C143.324218,5.36132885 143.25,5.53906145 143.25,5.75 C143.25,5.96093855 143.324218,6.13867115 143.472656,6.28320312 C143.621094,6.4277351 143.796874,6.5 144,6.5 Z" id="Tag---simple-line-icons"></path>
                </g>
            </g>
        </g>
    </g>
</svg>